<?xml version="1.0" encoding="UTF-8" standalone="no"?>
<!DOCTYPE svg PUBLIC "-//W3C//DTD SVG 1.1//EN"
 "http://www.w3.org/Graphics/SVG/1.1/DTD/svg11.dtd">
<!-- Generated by graphviz version 2.38.0 (20140413.2041)
 -->
<!-- Title: FST Pages: 1 -->
<svg width="51pt" height="110pt"
 viewBox="0.00 0.00 51.00 110.00" xmlns="http://www.w3.org/2000/svg" xmlns:xlink="http://www.w3.org/1999/xlink">
<g id="graph0" class="graph" transform="scale(1 1) rotate(0) translate(4 106)">
<title>FST</title>
<polygon fill="white" stroke="none" points="-4,4 -4,-106 47,-106 47,4 -4,4"/>
<!-- 0 -->
<g id="node1" class="node"><title>0</title>
<ellipse fill="none" stroke="black" stroke-width="2" cx="21.5" cy="-18" rx="18" ry="18"/>
<text text-anchor="middle" x="21.5" y="-14.3" font-family="Times,serif" font-size="14.00">0</text>
</g>
<!-- 0&#45;&gt;0 -->
<g id="edge1" class="edge"><title>0&#45;&gt;0</title>
<path fill="none" stroke="black" d="M18.2643,-35.7817C17.7144,-45.3149 18.793,-54 21.5,-54 23.1496,-54 24.1945,-50.7749 24.6347,-46.0981"/>
<polygon fill="black" stroke="black" points="28.1375,-45.8156 24.7357,-35.7817 21.1379,-45.7469 28.1375,-45.8156"/>
<text text-anchor="middle" x="21.5" y="-57.8" font-family="Times,serif" font-size="14.00">red:Red</text>
</g>
<!-- 0&#45;&gt;0 -->
<g id="edge2" class="edge"><title>0&#45;&gt;0</title>
<path fill="none" stroke="black" d="M16.1841,-35.4203C13.1538,-52.791 14.9258,-72 21.5,-72 26.7902,-72 28.9708,-59.5617 28.0419,-45.652"/>
<polygon fill="black" stroke="black" points="31.4808,-44.9328 26.8159,-35.4203 24.5305,-45.7657 31.4808,-44.9328"/>
<text text-anchor="middle" x="21.5" y="-75.8" font-family="Times,serif" font-size="14.00">Red:red</text>
</g>
</g>
</svg>
