<?xml version="1.0" encoding="UTF-8" standalone="no"?>
<!DOCTYPE svg PUBLIC "-//W3C//DTD SVG 1.1//EN"
 "http://www.w3.org/Graphics/SVG/1.1/DTD/svg11.dtd">
<!-- Generated by graphviz version 2.38.0 (20140413.2041)
 -->
<!-- Title: FST Pages: 1 -->
<svg width="59pt" height="283pt"
 viewBox="0.00 0.00 59.00 283.00" xmlns="http://www.w3.org/2000/svg" xmlns:xlink="http://www.w3.org/1999/xlink">
<g id="graph0" class="graph" transform="scale(1 1) rotate(0) translate(4 279)">
<title>FST</title>
<polygon fill="white" stroke="none" points="-4,4 -4,-279 55,-279 55,4 -4,4"/>
<!-- 0 -->
<g id="node1" class="node"><title>0</title>
<ellipse fill="none" stroke="black" stroke-width="2" cx="25.5" cy="-22" rx="18" ry="18"/>
<ellipse fill="none" stroke="black" stroke-width="2" cx="25.5" cy="-22" rx="22" ry="22"/>
<text text-anchor="middle" x="25.5" y="-18.3" font-family="Times,serif" font-size="14.00">0</text>
</g>
<!-- 0&#45;&gt;0 -->
<g id="edge1" class="edge"><title>0&#45;&gt;0</title>
<path fill="none" stroke="black" d="M24.0179,-44.2124C23.8966,-53.7952 24.3906,-62 25.5,-62 26.176,-62 26.6235,-58.9533 26.8426,-54.4045"/>
<polygon fill="black" stroke="black" points="30.3448,-54.2593 26.9821,-44.2124 23.3454,-54.1635 30.3448,-54.2593"/>
<text text-anchor="middle" x="25.5" y="-65.8" font-family="Times,serif" font-size="14.00">DET:the</text>
</g>
<!-- 0&#45;&gt;0 -->
<g id="edge2" class="edge"><title>0&#45;&gt;0</title>
<path fill="none" stroke="black" d="M22.9219,-44.019C21.8906,-61.724 22.75,-80 25.5,-80 27.7129,-80 28.7016,-68.1659 28.466,-54.318"/>
<polygon fill="black" stroke="black" points="31.9521,-53.8802 28.0781,-44.019 24.9571,-54.1437 31.9521,-53.8802"/>
<text text-anchor="middle" x="25.5" y="-83.8" font-family="Times,serif" font-size="14.00">DET:a</text>
</g>
<!-- 0&#45;&gt;0 -->
<g id="edge3" class="edge"><title>0&#45;&gt;0</title>
<path fill="none" stroke="black" d="M22.1964,-43.7844C19.8519,-68.9032 20.9531,-98 25.5,-98 29.443,-98 30.7948,-76.1188 29.5554,-53.9257"/>
<polygon fill="black" stroke="black" points="33.0334,-53.4983 28.8036,-43.7844 26.0525,-54.0158 33.0334,-53.4983"/>
<text text-anchor="middle" x="25.5" y="-101.8" font-family="Times,serif" font-size="14.00">N:cat</text>
</g>
<!-- 0&#45;&gt;0 -->
<g id="edge4" class="edge"><title>0&#45;&gt;0</title>
<path fill="none" stroke="black" d="M21.6713,-43.714C17.8175,-75.815 19.0938,-116 25.5,-116 31.2556,-116 32.8703,-83.563 30.3442,-53.6944"/>
<polygon fill="black" stroke="black" points="33.8231,-53.3084 29.3287,-43.714 26.859,-54.017 33.8231,-53.3084"/>
<text text-anchor="middle" x="25.5" y="-119.8" font-family="Times,serif" font-size="14.00">N:dog</text>
</g>
<!-- 0&#45;&gt;0 -->
<g id="edge5" class="edge"><title>0&#45;&gt;0</title>
<path fill="none" stroke="black" d="M21.2685,-43.7156C15.7887,-82.5524 17.1992,-134 25.5,-134 33.0874,-134 34.918,-91.015 30.9916,-53.967"/>
<polygon fill="black" stroke="black" points="34.4254,-53.2138 29.7315,-43.7156 27.4777,-54.0679 34.4254,-53.2138"/>
<text text-anchor="middle" x="25.5" y="-137.8" font-family="Times,serif" font-size="14.00">N:mouse</text>
</g>
<!-- 0&#45;&gt;0 -->
<g id="edge6" class="edge"><title>0&#45;&gt;0</title>
<path fill="none" stroke="black" d="M20.9495,-43.7361C13.7644,-89.1529 15.2812,-152 25.5,-152 34.9803,-152 36.9709,-97.9081 31.4719,-53.8251"/>
<polygon fill="black" stroke="black" points="34.9114,-53.15 30.0505,-43.7361 27.9799,-54.1266 34.9114,-53.15"/>
<text text-anchor="middle" x="25.5" y="-155.8" font-family="Times,serif" font-size="14.00">V:chased</text>
</g>
<!-- 0&#45;&gt;0 -->
<g id="edge7" class="edge"><title>0&#45;&gt;0</title>
<path fill="none" stroke="black" d="M20.7231,-43.5699C11.7397,-95.4667 13.332,-170 25.5,-170 36.9075,-170 39.0199,-104.492 31.8373,-53.5421"/>
<polygon fill="black" stroke="black" points="35.2809,-52.9086 30.2769,-43.5699 28.365,-53.9908 35.2809,-52.9086"/>
<text text-anchor="middle" x="25.5" y="-173.8" font-family="Times,serif" font-size="14.00">V:bit</text>
</g>
</g>
</svg>
