<?xml version="1.0" encoding="UTF-8" standalone="no"?>
<!DOCTYPE svg PUBLIC "-//W3C//DTD SVG 1.1//EN"
 "http://www.w3.org/Graphics/SVG/1.1/DTD/svg11.dtd">
<!-- Generated by graphviz version 2.38.0 (20140413.2041)
 -->
<!-- Title: FST Pages: 1 -->
<svg width="535pt" height="68pt"
 viewBox="0.00 0.00 535.00 67.78" xmlns="http://www.w3.org/2000/svg" xmlns:xlink="http://www.w3.org/1999/xlink">
<g id="graph0" class="graph" transform="scale(1 1) rotate(0) translate(4 63.7812)">
<title>FST</title>
<polygon fill="white" stroke="none" points="-4,4 -4,-63.7812 531,-63.7812 531,4 -4,4"/>
<!-- 0 -->
<g id="node1" class="node"><title>0</title>
<ellipse fill="none" stroke="black" stroke-width="2" cx="18" cy="-26.7812" rx="18" ry="18"/>
<text text-anchor="middle" x="18" y="-23.0812" font-family="Times,serif" font-size="14.00">0</text>
</g>
<!-- 1 -->
<g id="node2" class="node"><title>1</title>
<ellipse fill="none" stroke="black" cx="101" cy="-26.7812" rx="18" ry="18"/>
<text text-anchor="middle" x="101" y="-23.0812" font-family="Times,serif" font-size="14.00">1</text>
</g>
<!-- 0&#45;&gt;1 -->
<g id="edge1" class="edge"><title>0&#45;&gt;1</title>
<path fill="none" stroke="black" d="M36.178,-26.7812C46.8097,-26.7812 60.694,-26.7812 72.7965,-26.7812"/>
<polygon fill="black" stroke="black" points="72.8468,-30.2813 82.8467,-26.7812 72.8467,-23.2813 72.8468,-30.2813"/>
<text text-anchor="middle" x="59.5" y="-30.5812" font-family="Times,serif" font-size="14.00">the</text>
</g>
<!-- 0&#45;&gt;1 -->
<g id="edge2" class="edge"><title>0&#45;&gt;1</title>
<path fill="none" stroke="black" d="M32.9086,-16.3204C38.2739,-12.8963 44.6448,-9.5257 51,-7.78117 58.286,-5.78112 60.714,-5.78112 68,-7.78117 71.0783,-8.62618 74.1603,-9.8527 77.1299,-11.282"/>
<polygon fill="black" stroke="black" points="75.6593,-14.4704 86.0914,-16.3204 79.0899,-8.36867 75.6593,-14.4704"/>
<text text-anchor="middle" x="59.5" y="-11.5812" font-family="Times,serif" font-size="14.00">a</text>
</g>
<!-- 2 -->
<g id="node3" class="node"><title>2</title>
<ellipse fill="none" stroke="black" cx="204" cy="-26.7812" rx="18" ry="18"/>
<text text-anchor="middle" x="204" y="-23.0812" font-family="Times,serif" font-size="14.00">2</text>
</g>
<!-- 1&#45;&gt;2 -->
<g id="edge3" class="edge"><title>1&#45;&gt;2</title>
<path fill="none" stroke="black" d="M116.752,-35.944C121.998,-38.7101 128.076,-41.3827 134,-42.7812 150.005,-46.5593 154.995,-46.5593 171,-42.7812 173.684,-42.1475 176.4,-41.2522 179.056,-40.2051"/>
<polygon fill="black" stroke="black" points="180.648,-43.3253 188.248,-35.944 177.703,-36.9745 180.648,-43.3253"/>
<text text-anchor="middle" x="152.5" y="-48.5812" font-family="Times,serif" font-size="14.00">cat</text>
</g>
<!-- 1&#45;&gt;2 -->
<g id="edge4" class="edge"><title>1&#45;&gt;2</title>
<path fill="none" stroke="black" d="M118.919,-24.8973C123.781,-24.4368 129.095,-24.0106 134,-23.7812 150.426,-23.0129 154.574,-23.0129 171,-23.7812 172.533,-23.8529 174.106,-23.9438 175.692,-24.0489"/>
<polygon fill="black" stroke="black" points="175.83,-27.5717 186.081,-24.8973 176.399,-20.595 175.83,-27.5717"/>
<text text-anchor="middle" x="152.5" y="-27.5812" font-family="Times,serif" font-size="14.00">dog</text>
</g>
<!-- 1&#45;&gt;2 -->
<g id="edge5" class="edge"><title>1&#45;&gt;2</title>
<path fill="none" stroke="black" d="M114.667,-14.8792C120.173,-10.494 126.967,-6.04651 134,-3.78117 149.653,1.26039 155.347,1.26039 171,-3.78117 174.846,-5.02003 178.621,-6.9115 182.153,-9.08851"/>
<polygon fill="black" stroke="black" points="180.148,-11.9579 190.333,-14.8792 184.193,-6.24461 180.148,-11.9579"/>
<text text-anchor="middle" x="152.5" y="-7.58117" font-family="Times,serif" font-size="14.00">mouse</text>
</g>
<!-- 3 -->
<g id="node4" class="node"><title>3</title>
<ellipse fill="none" stroke="black" cx="311" cy="-26.7812" rx="18" ry="18"/>
<ellipse fill="none" stroke="black" cx="311" cy="-26.7812" rx="22" ry="22"/>
<text text-anchor="middle" x="311" y="-23.0812" font-family="Times,serif" font-size="14.00">3</text>
</g>
<!-- 2&#45;&gt;3 -->
<g id="edge6" class="edge"><title>2&#45;&gt;3</title>
<path fill="none" stroke="black" d="M222.339,-26.7812C237.601,-26.7812 260.202,-26.7812 278.632,-26.7812"/>
<polygon fill="black" stroke="black" points="278.641,-30.2813 288.641,-26.7812 278.641,-23.2813 278.641,-30.2813"/>
<text text-anchor="middle" x="255.5" y="-30.5812" font-family="Times,serif" font-size="14.00">chased</text>
</g>
<!-- 2&#45;&gt;3 -->
<g id="edge7" class="edge"><title>2&#45;&gt;3</title>
<path fill="none" stroke="black" d="M218.909,-16.3204C224.274,-12.8963 230.645,-9.5257 237,-7.78117 252.858,-3.42813 258.038,-3.8274 274,-7.78117 276.99,-8.5219 280.006,-9.56131 282.952,-10.7762"/>
<polygon fill="black" stroke="black" points="281.476,-13.9497 292.008,-15.104 284.494,-7.63393 281.476,-13.9497"/>
<text text-anchor="middle" x="255.5" y="-11.5812" font-family="Times,serif" font-size="14.00">bit</text>
</g>
<!-- 4 -->
<g id="node5" class="node"><title>4</title>
<ellipse fill="none" stroke="black" cx="398" cy="-26.7812" rx="18" ry="18"/>
<text text-anchor="middle" x="398" y="-23.0812" font-family="Times,serif" font-size="14.00">4</text>
</g>
<!-- 3&#45;&gt;4 -->
<g id="edge8" class="edge"><title>3&#45;&gt;4</title>
<path fill="none" stroke="black" d="M333.011,-26.7812C344.077,-26.7812 357.781,-26.7812 369.664,-26.7812"/>
<polygon fill="black" stroke="black" points="369.938,-30.2813 379.938,-26.7812 369.938,-23.2813 369.938,-30.2813"/>
<text text-anchor="middle" x="356.5" y="-30.5812" font-family="Times,serif" font-size="14.00">the</text>
</g>
<!-- 3&#45;&gt;4 -->
<g id="edge9" class="edge"><title>3&#45;&gt;4</title>
<path fill="none" stroke="black" d="M329.451,-14.7972C339.685,-9.21917 352.935,-4.46917 365,-7.78117 368.078,-8.62618 371.16,-9.8527 374.13,-11.282"/>
<polygon fill="black" stroke="black" points="372.659,-14.4704 383.091,-16.3204 376.09,-8.36867 372.659,-14.4704"/>
<text text-anchor="middle" x="356.5" y="-11.5812" font-family="Times,serif" font-size="14.00">a</text>
</g>
<!-- 5 -->
<g id="node6" class="node"><title>5</title>
<ellipse fill="none" stroke="black" cx="505" cy="-26.7812" rx="18" ry="18"/>
<ellipse fill="none" stroke="black" cx="505" cy="-26.7812" rx="22" ry="22"/>
<text text-anchor="middle" x="505" y="-23.0812" font-family="Times,serif" font-size="14.00">5</text>
</g>
<!-- 4&#45;&gt;5 -->
<g id="edge10" class="edge"><title>4&#45;&gt;5</title>
<path fill="none" stroke="black" d="M413.752,-35.944C418.998,-38.7101 425.076,-41.3827 431,-42.7812 447.005,-46.5593 451.914,-46.1949 468,-42.7812 470.517,-42.247 473.072,-41.5242 475.599,-40.6798"/>
<polygon fill="black" stroke="black" points="477.041,-43.874 485.071,-36.962 474.483,-37.3581 477.041,-43.874"/>
<text text-anchor="middle" x="449.5" y="-48.5812" font-family="Times,serif" font-size="14.00">cat</text>
</g>
<!-- 4&#45;&gt;5 -->
<g id="edge11" class="edge"><title>4&#45;&gt;5</title>
<path fill="none" stroke="black" d="M415.919,-24.8973C420.781,-24.4368 426.095,-24.0106 431,-23.7812 447.426,-23.0129 451.57,-23.0978 468,-23.7812 469.527,-23.8447 471.09,-23.9233 472.668,-24.0136"/>
<polygon fill="black" stroke="black" points="472.859,-27.5354 483.079,-24.7418 473.347,-20.5525 472.859,-27.5354"/>
<text text-anchor="middle" x="449.5" y="-27.5812" font-family="Times,serif" font-size="14.00">dog</text>
</g>
<!-- 4&#45;&gt;5 -->
<g id="edge12" class="edge"><title>4&#45;&gt;5</title>
<path fill="none" stroke="black" d="M411.667,-14.8792C417.173,-10.494 423.967,-6.04651 431,-3.78117 446.653,1.26039 452.215,0.830661 468,-3.78117 471.631,-4.84197 475.244,-6.39294 478.702,-8.19667"/>
<polygon fill="black" stroke="black" points="477.021,-11.2696 487.4,-13.3985 480.614,-5.26198 477.021,-11.2696"/>
<text text-anchor="middle" x="449.5" y="-7.58117" font-family="Times,serif" font-size="14.00">mouse</text>
</g>
</g>
</svg>
