<?xml version="1.0" encoding="UTF-8" standalone="no"?>
<!DOCTYPE svg PUBLIC "-//W3C//DTD SVG 1.1//EN"
 "http://www.w3.org/Graphics/SVG/1.1/DTD/svg11.dtd">
<!-- Generated by graphviz version 2.38.0 (20140413.2041)
 -->
<!-- Title: FST Pages: 1 -->
<svg width="576pt" height="52pt"
 viewBox="0.00 0.00 576.00 52.00" xmlns="http://www.w3.org/2000/svg" xmlns:xlink="http://www.w3.org/1999/xlink">
<g id="graph0" class="graph" transform="scale(1 1) rotate(0) translate(4 48)">
<title>FST</title>
<polygon fill="white" stroke="none" points="-4,4 -4,-48 572,-48 572,4 -4,4"/>
<!-- 0 -->
<g id="node1" class="node"><title>0</title>
<ellipse fill="none" stroke="black" stroke-width="2" cx="18" cy="-22" rx="18" ry="18"/>
<text text-anchor="middle" x="18" y="-18.3" font-family="Times,serif" font-size="14.00">0</text>
</g>
<!-- 1 -->
<g id="node2" class="node"><title>1</title>
<ellipse fill="none" stroke="black" cx="141" cy="-22" rx="18" ry="18"/>
<text text-anchor="middle" x="141" y="-18.3" font-family="Times,serif" font-size="14.00">1</text>
</g>
<!-- 0&#45;&gt;1 -->
<g id="edge1" class="edge"><title>0&#45;&gt;1</title>
<path fill="none" stroke="black" d="M36.0797,-22C55.9649,-22 89.0772,-22 112.577,-22"/>
<polygon fill="black" stroke="black" points="112.615,-25.5001 122.615,-22 112.615,-18.5001 112.615,-25.5001"/>
<text text-anchor="middle" x="79.5" y="-25.8" font-family="Times,serif" font-size="14.00">DET:DET</text>
</g>
<!-- 2 -->
<g id="node3" class="node"><title>2</title>
<ellipse fill="none" stroke="black" cx="231" cy="-22" rx="18" ry="18"/>
<text text-anchor="middle" x="231" y="-18.3" font-family="Times,serif" font-size="14.00">2</text>
</g>
<!-- 1&#45;&gt;2 -->
<g id="edge2" class="edge"><title>1&#45;&gt;2</title>
<path fill="none" stroke="black" d="M159.386,-22C171.76,-22 188.631,-22 202.78,-22"/>
<polygon fill="black" stroke="black" points="202.95,-25.5001 212.95,-22 202.95,-18.5001 202.95,-25.5001"/>
<text text-anchor="middle" x="186" y="-25.8" font-family="Times,serif" font-size="14.00">N:N</text>
</g>
<!-- 3 -->
<g id="node4" class="node"><title>3</title>
<ellipse fill="none" stroke="black" cx="325" cy="-22" rx="18" ry="18"/>
<ellipse fill="none" stroke="black" cx="325" cy="-22" rx="22" ry="22"/>
<text text-anchor="middle" x="325" y="-18.3" font-family="Times,serif" font-size="14.00">3</text>
</g>
<!-- 2&#45;&gt;3 -->
<g id="edge3" class="edge"><title>2&#45;&gt;3</title>
<path fill="none" stroke="black" d="M249.304,-22C261.535,-22 278.271,-22 292.802,-22"/>
<polygon fill="black" stroke="black" points="292.897,-25.5001 302.897,-22 292.897,-18.5001 292.897,-25.5001"/>
<text text-anchor="middle" x="276" y="-25.8" font-family="Times,serif" font-size="14.00">V:V</text>
</g>
<!-- 4 -->
<g id="node5" class="node"><title>4</title>
<ellipse fill="none" stroke="black" cx="452" cy="-22" rx="18" ry="18"/>
<text text-anchor="middle" x="452" y="-18.3" font-family="Times,serif" font-size="14.00">4</text>
</g>
<!-- 3&#45;&gt;4 -->
<g id="edge4" class="edge"><title>3&#45;&gt;4</title>
<path fill="none" stroke="black" d="M347.205,-22C368.251,-22 400.604,-22 423.59,-22"/>
<polygon fill="black" stroke="black" points="423.724,-25.5001 433.724,-22 423.724,-18.5001 423.724,-25.5001"/>
<text text-anchor="middle" x="390.5" y="-25.8" font-family="Times,serif" font-size="14.00">DET:DET</text>
</g>
<!-- 5 -->
<g id="node6" class="node"><title>5</title>
<ellipse fill="none" stroke="black" cx="546" cy="-22" rx="18" ry="18"/>
<ellipse fill="none" stroke="black" cx="546" cy="-22" rx="22" ry="22"/>
<text text-anchor="middle" x="546" y="-18.3" font-family="Times,serif" font-size="14.00">5</text>
</g>
<!-- 4&#45;&gt;5 -->
<g id="edge5" class="edge"><title>4&#45;&gt;5</title>
<path fill="none" stroke="black" d="M470.304,-22C482.535,-22 499.271,-22 513.802,-22"/>
<polygon fill="black" stroke="black" points="513.897,-25.5001 523.897,-22 513.897,-18.5001 513.897,-25.5001"/>
<text text-anchor="middle" x="497" y="-25.8" font-family="Times,serif" font-size="14.00">N:N</text>
</g>
</g>
</svg>
