<?xml version="1.0" encoding="utf-8"?>
<svg xmlns="http://www.w3.org/2000/svg" xmlns:xlink="http://www.w3.org/1999/xlink" width="600" height="400" viewBox="0 0 2400 1600">
<defs>
  <clipPath id="clip450">
    <rect x="0" y="0" width="2400" height="1600"/>
  </clipPath>
</defs>
<path clip-path="url(#clip450)" d="
M0 1600 L2400 1600 L2400 0 L0 0  Z
  " fill="#ffffff" fill-rule="evenodd" fill-opacity="1"/>
<defs>
  <clipPath id="clip451">
    <rect x="480" y="0" width="1681" height="1600"/>
  </clipPath>
</defs>
<path clip-path="url(#clip450)" d="
M169.121 1486.45 L2352.76 1486.45 L2352.76 47.2441 L169.121 47.2441  Z
  " fill="#ffffff" fill-rule="evenodd" fill-opacity="1"/>
<defs>
  <clipPath id="clip452">
    <rect x="169" y="47" width="2185" height="1440"/>
  </clipPath>
</defs>
<polyline clip-path="url(#clip452)" style="stroke:#000000; stroke-linecap:round; stroke-linejoin:round; stroke-width:2; stroke-opacity:0.1; fill:none" points="
  230.922,1486.45 230.922,47.2441 
  "/>
<polyline clip-path="url(#clip452)" style="stroke:#000000; stroke-linecap:round; stroke-linejoin:round; stroke-width:2; stroke-opacity:0.1; fill:none" points="
  660.096,1486.45 660.096,47.2441 
  "/>
<polyline clip-path="url(#clip452)" style="stroke:#000000; stroke-linecap:round; stroke-linejoin:round; stroke-width:2; stroke-opacity:0.1; fill:none" points="
  1089.27,1486.45 1089.27,47.2441 
  "/>
<polyline clip-path="url(#clip452)" style="stroke:#000000; stroke-linecap:round; stroke-linejoin:round; stroke-width:2; stroke-opacity:0.1; fill:none" points="
  1518.44,1486.45 1518.44,47.2441 
  "/>
<polyline clip-path="url(#clip452)" style="stroke:#000000; stroke-linecap:round; stroke-linejoin:round; stroke-width:2; stroke-opacity:0.1; fill:none" points="
  1947.62,1486.45 1947.62,47.2441 
  "/>
<polyline clip-path="url(#clip450)" style="stroke:#000000; stroke-linecap:round; stroke-linejoin:round; stroke-width:4; stroke-opacity:1; fill:none" points="
  169.121,1486.45 2352.76,1486.45 
  "/>
<polyline clip-path="url(#clip450)" style="stroke:#000000; stroke-linecap:round; stroke-linejoin:round; stroke-width:4; stroke-opacity:1; fill:none" points="
  230.922,1486.45 230.922,1467.55 
  "/>
<polyline clip-path="url(#clip450)" style="stroke:#000000; stroke-linecap:round; stroke-linejoin:round; stroke-width:4; stroke-opacity:1; fill:none" points="
  660.096,1486.45 660.096,1467.55 
  "/>
<polyline clip-path="url(#clip450)" style="stroke:#000000; stroke-linecap:round; stroke-linejoin:round; stroke-width:4; stroke-opacity:1; fill:none" points="
  1089.27,1486.45 1089.27,1467.55 
  "/>
<polyline clip-path="url(#clip450)" style="stroke:#000000; stroke-linecap:round; stroke-linejoin:round; stroke-width:4; stroke-opacity:1; fill:none" points="
  1518.44,1486.45 1518.44,1467.55 
  "/>
<polyline clip-path="url(#clip450)" style="stroke:#000000; stroke-linecap:round; stroke-linejoin:round; stroke-width:4; stroke-opacity:1; fill:none" points="
  1947.62,1486.45 1947.62,1467.55 
  "/>
<path clip-path="url(#clip450)" d="M230.922 1517.37 Q227.311 1517.37 225.483 1520.93 Q223.677 1524.47 223.677 1531.6 Q223.677 1538.71 225.483 1542.27 Q227.311 1545.82 230.922 1545.82 Q234.557 1545.82 236.362 1542.27 Q238.191 1538.71 238.191 1531.6 Q238.191 1524.47 236.362 1520.93 Q234.557 1517.37 230.922 1517.37 M230.922 1513.66 Q236.732 1513.66 239.788 1518.27 Q242.867 1522.85 242.867 1531.6 Q242.867 1540.33 239.788 1544.94 Q236.732 1549.52 230.922 1549.52 Q225.112 1549.52 222.033 1544.94 Q218.978 1540.33 218.978 1531.6 Q218.978 1522.85 222.033 1518.27 Q225.112 1513.66 230.922 1513.66 Z" fill="#000000" fill-rule="evenodd" fill-opacity="1" /><path clip-path="url(#clip450)" d="M650.374 1514.29 L668.73 1514.29 L668.73 1518.22 L654.656 1518.22 L654.656 1526.7 Q655.674 1526.35 656.693 1526.19 Q657.712 1526 658.73 1526 Q664.517 1526 667.897 1529.17 Q671.276 1532.34 671.276 1537.76 Q671.276 1543.34 667.804 1546.44 Q664.332 1549.52 658.012 1549.52 Q655.837 1549.52 653.568 1549.15 Q651.323 1548.78 648.915 1548.04 L648.915 1543.34 Q650.999 1544.47 653.221 1545.03 Q655.443 1545.58 657.92 1545.58 Q661.924 1545.58 664.262 1543.48 Q666.6 1541.37 666.6 1537.76 Q666.6 1534.15 664.262 1532.04 Q661.924 1529.94 657.92 1529.94 Q656.045 1529.94 654.17 1530.35 Q652.318 1530.77 650.374 1531.65 L650.374 1514.29 Z" fill="#000000" fill-rule="evenodd" fill-opacity="1" /><path clip-path="url(#clip450)" d="M1063.96 1544.91 L1071.6 1544.91 L1071.6 1518.55 L1063.29 1520.21 L1063.29 1515.95 L1071.55 1514.29 L1076.23 1514.29 L1076.23 1544.91 L1083.86 1544.91 L1083.86 1548.85 L1063.96 1548.85 L1063.96 1544.91 Z" fill="#000000" fill-rule="evenodd" fill-opacity="1" /><path clip-path="url(#clip450)" d="M1103.31 1517.37 Q1099.7 1517.37 1097.87 1520.93 Q1096.06 1524.47 1096.06 1531.6 Q1096.06 1538.71 1097.87 1542.27 Q1099.7 1545.82 1103.31 1545.82 Q1106.94 1545.82 1108.75 1542.27 Q1110.58 1538.71 1110.58 1531.6 Q1110.58 1524.47 1108.75 1520.93 Q1106.94 1517.37 1103.31 1517.37 M1103.31 1513.66 Q1109.12 1513.66 1112.17 1518.27 Q1115.25 1522.85 1115.25 1531.6 Q1115.25 1540.33 1112.17 1544.94 Q1109.12 1549.52 1103.31 1549.52 Q1097.5 1549.52 1094.42 1544.94 Q1091.36 1540.33 1091.36 1531.6 Q1091.36 1522.85 1094.42 1518.27 Q1097.5 1513.66 1103.31 1513.66 Z" fill="#000000" fill-rule="evenodd" fill-opacity="1" /><path clip-path="url(#clip450)" d="M1493.63 1544.91 L1501.27 1544.91 L1501.27 1518.55 L1492.96 1520.21 L1492.96 1515.95 L1501.22 1514.29 L1505.9 1514.29 L1505.9 1544.91 L1513.54 1544.91 L1513.54 1548.85 L1493.63 1548.85 L1493.63 1544.91 Z" fill="#000000" fill-rule="evenodd" fill-opacity="1" /><path clip-path="url(#clip450)" d="M1523.03 1514.29 L1541.38 1514.29 L1541.38 1518.22 L1527.31 1518.22 L1527.31 1526.7 Q1528.33 1526.35 1529.35 1526.19 Q1530.36 1526 1531.38 1526 Q1537.17 1526 1540.55 1529.17 Q1543.93 1532.34 1543.93 1537.76 Q1543.93 1543.34 1540.46 1546.44 Q1536.98 1549.52 1530.66 1549.52 Q1528.49 1549.52 1526.22 1549.15 Q1523.98 1548.78 1521.57 1548.04 L1521.57 1543.34 Q1523.65 1544.47 1525.87 1545.03 Q1528.1 1545.58 1530.57 1545.58 Q1534.58 1545.58 1536.91 1543.48 Q1539.25 1541.37 1539.25 1537.76 Q1539.25 1534.15 1536.91 1532.04 Q1534.58 1529.94 1530.57 1529.94 Q1528.7 1529.94 1526.82 1530.35 Q1524.97 1530.77 1523.03 1531.65 L1523.03 1514.29 Z" fill="#000000" fill-rule="evenodd" fill-opacity="1" /><path clip-path="url(#clip450)" d="M1926.39 1544.91 L1942.71 1544.91 L1942.71 1548.85 L1920.76 1548.85 L1920.76 1544.91 Q1923.43 1542.16 1928.01 1537.53 Q1932.62 1532.88 1933.8 1531.53 Q1936.04 1529.01 1936.92 1527.27 Q1937.82 1525.51 1937.82 1523.82 Q1937.82 1521.07 1935.88 1519.33 Q1933.96 1517.6 1930.86 1517.6 Q1928.66 1517.6 1926.2 1518.36 Q1923.77 1519.13 1921 1520.68 L1921 1515.95 Q1923.82 1514.82 1926.27 1514.24 Q1928.73 1513.66 1930.76 1513.66 Q1936.13 1513.66 1939.33 1516.35 Q1942.52 1519.03 1942.52 1523.52 Q1942.52 1525.65 1941.71 1527.57 Q1940.93 1529.47 1938.82 1532.07 Q1938.24 1532.74 1935.14 1535.95 Q1932.04 1539.15 1926.39 1544.91 Z" fill="#000000" fill-rule="evenodd" fill-opacity="1" /><path clip-path="url(#clip450)" d="M1962.52 1517.37 Q1958.91 1517.37 1957.08 1520.93 Q1955.28 1524.47 1955.28 1531.6 Q1955.28 1538.71 1957.08 1542.27 Q1958.91 1545.82 1962.52 1545.82 Q1966.16 1545.82 1967.96 1542.27 Q1969.79 1538.71 1969.79 1531.6 Q1969.79 1524.47 1967.96 1520.93 Q1966.16 1517.37 1962.52 1517.37 M1962.52 1513.66 Q1968.33 1513.66 1971.39 1518.27 Q1974.47 1522.85 1974.47 1531.6 Q1974.47 1540.33 1971.39 1544.94 Q1968.33 1549.52 1962.52 1549.52 Q1956.71 1549.52 1953.63 1544.94 Q1950.58 1540.33 1950.58 1531.6 Q1950.58 1522.85 1953.63 1518.27 Q1956.71 1513.66 1962.52 1513.66 Z" fill="#000000" fill-rule="evenodd" fill-opacity="1" /><polyline clip-path="url(#clip452)" style="stroke:#000000; stroke-linecap:round; stroke-linejoin:round; stroke-width:2; stroke-opacity:0.1; fill:none" points="
  169.121,1445.72 2352.76,1445.72 
  "/>
<polyline clip-path="url(#clip452)" style="stroke:#000000; stroke-linecap:round; stroke-linejoin:round; stroke-width:2; stroke-opacity:0.1; fill:none" points="
  169.121,1240 2352.76,1240 
  "/>
<polyline clip-path="url(#clip452)" style="stroke:#000000; stroke-linecap:round; stroke-linejoin:round; stroke-width:2; stroke-opacity:0.1; fill:none" points="
  169.121,1034.28 2352.76,1034.28 
  "/>
<polyline clip-path="url(#clip452)" style="stroke:#000000; stroke-linecap:round; stroke-linejoin:round; stroke-width:2; stroke-opacity:0.1; fill:none" points="
  169.121,828.561 2352.76,828.561 
  "/>
<polyline clip-path="url(#clip452)" style="stroke:#000000; stroke-linecap:round; stroke-linejoin:round; stroke-width:2; stroke-opacity:0.1; fill:none" points="
  169.121,622.843 2352.76,622.843 
  "/>
<polyline clip-path="url(#clip452)" style="stroke:#000000; stroke-linecap:round; stroke-linejoin:round; stroke-width:2; stroke-opacity:0.1; fill:none" points="
  169.121,417.125 2352.76,417.125 
  "/>
<polyline clip-path="url(#clip452)" style="stroke:#000000; stroke-linecap:round; stroke-linejoin:round; stroke-width:2; stroke-opacity:0.1; fill:none" points="
  169.121,211.407 2352.76,211.407 
  "/>
<polyline clip-path="url(#clip450)" style="stroke:#000000; stroke-linecap:round; stroke-linejoin:round; stroke-width:4; stroke-opacity:1; fill:none" points="
  169.121,1486.45 169.121,47.2441 
  "/>
<polyline clip-path="url(#clip450)" style="stroke:#000000; stroke-linecap:round; stroke-linejoin:round; stroke-width:4; stroke-opacity:1; fill:none" points="
  169.121,1445.72 188.019,1445.72 
  "/>
<polyline clip-path="url(#clip450)" style="stroke:#000000; stroke-linecap:round; stroke-linejoin:round; stroke-width:4; stroke-opacity:1; fill:none" points="
  169.121,1240 188.019,1240 
  "/>
<polyline clip-path="url(#clip450)" style="stroke:#000000; stroke-linecap:round; stroke-linejoin:round; stroke-width:4; stroke-opacity:1; fill:none" points="
  169.121,1034.28 188.019,1034.28 
  "/>
<polyline clip-path="url(#clip450)" style="stroke:#000000; stroke-linecap:round; stroke-linejoin:round; stroke-width:4; stroke-opacity:1; fill:none" points="
  169.121,828.561 188.019,828.561 
  "/>
<polyline clip-path="url(#clip450)" style="stroke:#000000; stroke-linecap:round; stroke-linejoin:round; stroke-width:4; stroke-opacity:1; fill:none" points="
  169.121,622.843 188.019,622.843 
  "/>
<polyline clip-path="url(#clip450)" style="stroke:#000000; stroke-linecap:round; stroke-linejoin:round; stroke-width:4; stroke-opacity:1; fill:none" points="
  169.121,417.125 188.019,417.125 
  "/>
<polyline clip-path="url(#clip450)" style="stroke:#000000; stroke-linecap:round; stroke-linejoin:round; stroke-width:4; stroke-opacity:1; fill:none" points="
  169.121,211.407 188.019,211.407 
  "/>
<path clip-path="url(#clip450)" d="M121.177 1431.51 Q117.566 1431.51 115.737 1435.08 Q113.932 1438.62 113.932 1445.75 Q113.932 1452.86 115.737 1456.42 Q117.566 1459.96 121.177 1459.96 Q124.811 1459.96 126.617 1456.42 Q128.445 1452.86 128.445 1445.75 Q128.445 1438.62 126.617 1435.08 Q124.811 1431.51 121.177 1431.51 M121.177 1427.81 Q126.987 1427.81 130.043 1432.42 Q133.121 1437 133.121 1445.75 Q133.121 1454.48 130.043 1459.08 Q126.987 1463.67 121.177 1463.67 Q115.367 1463.67 112.288 1459.08 Q109.233 1454.48 109.233 1445.75 Q109.233 1437 112.288 1432.42 Q115.367 1427.81 121.177 1427.81 Z" fill="#000000" fill-rule="evenodd" fill-opacity="1" /><path clip-path="url(#clip450)" d="M85.0429 1253.34 L101.362 1253.34 L101.362 1257.28 L79.4179 1257.28 L79.4179 1253.34 Q82.0799 1250.59 86.6632 1245.96 Q91.2697 1241.31 92.4502 1239.96 Q94.6956 1237.44 95.5752 1235.7 Q96.478 1233.94 96.478 1232.25 Q96.478 1229.5 94.5336 1227.76 Q92.6123 1226.03 89.5104 1226.03 Q87.3114 1226.03 84.8577 1226.79 Q82.4271 1227.56 79.6494 1229.11 L79.6494 1224.38 Q82.4734 1223.25 84.9271 1222.67 Q87.3808 1222.09 89.4178 1222.09 Q94.7882 1222.09 97.9826 1224.78 Q101.177 1227.46 101.177 1231.95 Q101.177 1234.08 100.367 1236 Q99.5798 1237.9 97.4734 1240.5 Q96.8947 1241.17 93.7928 1244.38 Q90.691 1247.58 85.0429 1253.34 Z" fill="#000000" fill-rule="evenodd" fill-opacity="1" /><path clip-path="url(#clip450)" d="M121.177 1225.8 Q117.566 1225.8 115.737 1229.36 Q113.932 1232.9 113.932 1240.03 Q113.932 1247.14 115.737 1250.7 Q117.566 1254.25 121.177 1254.25 Q124.811 1254.25 126.617 1250.7 Q128.445 1247.14 128.445 1240.03 Q128.445 1232.9 126.617 1229.36 Q124.811 1225.8 121.177 1225.8 M121.177 1222.09 Q126.987 1222.09 130.043 1226.7 Q133.121 1231.28 133.121 1240.03 Q133.121 1248.76 130.043 1253.37 Q126.987 1257.95 121.177 1257.95 Q115.367 1257.95 112.288 1253.37 Q109.233 1248.76 109.233 1240.03 Q109.233 1231.28 112.288 1226.7 Q115.367 1222.09 121.177 1222.09 Z" fill="#000000" fill-rule="evenodd" fill-opacity="1" /><path clip-path="url(#clip450)" d="M93.8623 1021.07 L82.0568 1039.52 L93.8623 1039.52 L93.8623 1021.07 M92.6354 1017 L98.515 1017 L98.515 1039.52 L103.446 1039.52 L103.446 1043.41 L98.515 1043.41 L98.515 1051.56 L93.8623 1051.56 L93.8623 1043.41 L78.2605 1043.41 L78.2605 1038.9 L92.6354 1017 Z" fill="#000000" fill-rule="evenodd" fill-opacity="1" /><path clip-path="url(#clip450)" d="M121.177 1020.08 Q117.566 1020.08 115.737 1023.64 Q113.932 1027.18 113.932 1034.31 Q113.932 1041.42 115.737 1044.99 Q117.566 1048.53 121.177 1048.53 Q124.811 1048.53 126.617 1044.99 Q128.445 1041.42 128.445 1034.31 Q128.445 1027.18 126.617 1023.64 Q124.811 1020.08 121.177 1020.08 M121.177 1016.37 Q126.987 1016.37 130.043 1020.98 Q133.121 1025.56 133.121 1034.31 Q133.121 1043.04 130.043 1047.65 Q126.987 1052.23 121.177 1052.23 Q115.367 1052.23 112.288 1047.65 Q109.233 1043.04 109.233 1034.31 Q109.233 1025.56 112.288 1020.98 Q115.367 1016.37 121.177 1016.37 Z" fill="#000000" fill-rule="evenodd" fill-opacity="1" /><path clip-path="url(#clip450)" d="M91.5938 826.698 Q88.4456 826.698 86.5938 828.851 Q84.7651 831.004 84.7651 834.754 Q84.7651 838.48 86.5938 840.656 Q88.4456 842.809 91.5938 842.809 Q94.7419 842.809 96.5706 840.656 Q98.4224 838.48 98.4224 834.754 Q98.4224 831.004 96.5706 828.851 Q94.7419 826.698 91.5938 826.698 M100.876 812.045 L100.876 816.305 Q99.1169 815.471 97.3113 815.031 Q95.5289 814.592 93.7697 814.592 Q89.1401 814.592 86.6864 817.717 Q84.2558 820.842 83.9086 827.161 Q85.2743 825.147 87.3345 824.082 Q89.3947 822.994 91.8715 822.994 Q97.0798 822.994 100.089 826.166 Q103.121 829.314 103.121 834.754 Q103.121 840.078 99.9733 843.295 Q96.8252 846.513 91.5938 846.513 Q85.5984 846.513 82.4271 841.929 Q79.2559 837.323 79.2559 828.596 Q79.2559 820.402 83.1447 815.541 Q87.0336 810.656 93.5845 810.656 Q95.3437 810.656 97.1261 811.004 Q98.9317 811.351 100.876 812.045 Z" fill="#000000" fill-rule="evenodd" fill-opacity="1" /><path clip-path="url(#clip450)" d="M121.177 814.36 Q117.566 814.36 115.737 817.925 Q113.932 821.467 113.932 828.596 Q113.932 835.703 115.737 839.267 Q117.566 842.809 121.177 842.809 Q124.811 842.809 126.617 839.267 Q128.445 835.703 128.445 828.596 Q128.445 821.467 126.617 817.925 Q124.811 814.36 121.177 814.36 M121.177 810.656 Q126.987 810.656 130.043 815.263 Q133.121 819.846 133.121 828.596 Q133.121 837.323 130.043 841.929 Q126.987 846.513 121.177 846.513 Q115.367 846.513 112.288 841.929 Q109.233 837.323 109.233 828.596 Q109.233 819.846 112.288 815.263 Q115.367 810.656 121.177 810.656 Z" fill="#000000" fill-rule="evenodd" fill-opacity="1" /><path clip-path="url(#clip450)" d="M91.0151 623.711 Q87.6817 623.711 85.7605 625.494 Q83.8623 627.276 83.8623 630.401 Q83.8623 633.526 85.7605 635.309 Q87.6817 637.091 91.0151 637.091 Q94.3484 637.091 96.2697 635.309 Q98.1909 633.503 98.1909 630.401 Q98.1909 627.276 96.2697 625.494 Q94.3715 623.711 91.0151 623.711 M86.3392 621.721 Q83.3299 620.98 81.6401 618.92 Q79.9735 616.86 79.9735 613.897 Q79.9735 609.753 82.9133 607.346 Q85.8762 604.938 91.0151 604.938 Q96.1771 604.938 99.1169 607.346 Q102.057 609.753 102.057 613.897 Q102.057 616.86 100.367 618.92 Q98.7002 620.98 95.7141 621.721 Q99.0937 622.508 100.969 624.799 Q102.867 627.091 102.867 630.401 Q102.867 635.424 99.7882 638.109 Q96.7326 640.795 91.0151 640.795 Q85.2975 640.795 82.2188 638.109 Q79.1633 635.424 79.1633 630.401 Q79.1633 627.091 81.0614 624.799 Q82.9595 622.508 86.3392 621.721 M84.6262 614.336 Q84.6262 617.022 86.2929 618.526 Q87.9827 620.031 91.0151 620.031 Q94.0243 620.031 95.7141 618.526 Q97.4271 617.022 97.4271 614.336 Q97.4271 611.651 95.7141 610.147 Q94.0243 608.642 91.0151 608.642 Q87.9827 608.642 86.2929 610.147 Q84.6262 611.651 84.6262 614.336 Z" fill="#000000" fill-rule="evenodd" fill-opacity="1" /><path clip-path="url(#clip450)" d="M121.177 608.642 Q117.566 608.642 115.737 612.207 Q113.932 615.748 113.932 622.878 Q113.932 629.984 115.737 633.549 Q117.566 637.091 121.177 637.091 Q124.811 637.091 126.617 633.549 Q128.445 629.984 128.445 622.878 Q128.445 615.748 126.617 612.207 Q124.811 608.642 121.177 608.642 M121.177 604.938 Q126.987 604.938 130.043 609.545 Q133.121 614.128 133.121 622.878 Q133.121 631.605 130.043 636.211 Q126.987 640.795 121.177 640.795 Q115.367 640.795 112.288 636.211 Q109.233 631.605 109.233 622.878 Q109.233 614.128 112.288 609.545 Q115.367 604.938 121.177 604.938 Z" fill="#000000" fill-rule="evenodd" fill-opacity="1" /><path clip-path="url(#clip450)" d="M51.6634 430.47 L59.3023 430.47 L59.3023 404.104 L50.9921 405.771 L50.9921 401.512 L59.256 399.845 L63.9319 399.845 L63.9319 430.47 L71.5707 430.47 L71.5707 434.405 L51.6634 434.405 L51.6634 430.47 Z" fill="#000000" fill-rule="evenodd" fill-opacity="1" /><path clip-path="url(#clip450)" d="M91.0151 402.924 Q87.404 402.924 85.5753 406.489 Q83.7697 410.03 83.7697 417.16 Q83.7697 424.266 85.5753 427.831 Q87.404 431.373 91.0151 431.373 Q94.6493 431.373 96.4548 427.831 Q98.2835 424.266 98.2835 417.16 Q98.2835 410.03 96.4548 406.489 Q94.6493 402.924 91.0151 402.924 M91.0151 399.22 Q96.8252 399.22 99.8808 403.827 Q102.959 408.41 102.959 417.16 Q102.959 425.887 99.8808 430.493 Q96.8252 435.077 91.0151 435.077 Q85.2049 435.077 82.1262 430.493 Q79.0707 425.887 79.0707 417.16 Q79.0707 408.41 82.1262 403.827 Q85.2049 399.22 91.0151 399.22 Z" fill="#000000" fill-rule="evenodd" fill-opacity="1" /><path clip-path="url(#clip450)" d="M121.177 402.924 Q117.566 402.924 115.737 406.489 Q113.932 410.03 113.932 417.16 Q113.932 424.266 115.737 427.831 Q117.566 431.373 121.177 431.373 Q124.811 431.373 126.617 427.831 Q128.445 424.266 128.445 417.16 Q128.445 410.03 126.617 406.489 Q124.811 402.924 121.177 402.924 M121.177 399.22 Q126.987 399.22 130.043 403.827 Q133.121 408.41 133.121 417.16 Q133.121 425.887 130.043 430.493 Q126.987 435.077 121.177 435.077 Q115.367 435.077 112.288 430.493 Q109.233 425.887 109.233 417.16 Q109.233 408.41 112.288 403.827 Q115.367 399.22 121.177 399.22 Z" fill="#000000" fill-rule="evenodd" fill-opacity="1" /><path clip-path="url(#clip450)" d="M51.6634 224.752 L59.3023 224.752 L59.3023 198.386 L50.9921 200.053 L50.9921 195.794 L59.256 194.127 L63.9319 194.127 L63.9319 224.752 L71.5707 224.752 L71.5707 228.687 L51.6634 228.687 L51.6634 224.752 Z" fill="#000000" fill-rule="evenodd" fill-opacity="1" /><path clip-path="url(#clip450)" d="M85.0429 224.752 L101.362 224.752 L101.362 228.687 L79.4179 228.687 L79.4179 224.752 Q82.0799 221.997 86.6632 217.368 Q91.2697 212.715 92.4502 211.372 Q94.6956 208.849 95.5752 207.113 Q96.478 205.354 96.478 203.664 Q96.478 200.91 94.5336 199.173 Q92.6123 197.437 89.5104 197.437 Q87.3114 197.437 84.8577 198.201 Q82.4271 198.965 79.6494 200.516 L79.6494 195.794 Q82.4734 194.66 84.9271 194.081 Q87.3808 193.502 89.4178 193.502 Q94.7882 193.502 97.9826 196.187 Q101.177 198.872 101.177 203.363 Q101.177 205.493 100.367 207.414 Q99.5798 209.312 97.4734 211.905 Q96.8947 212.576 93.7928 215.794 Q90.691 218.988 85.0429 224.752 Z" fill="#000000" fill-rule="evenodd" fill-opacity="1" /><path clip-path="url(#clip450)" d="M121.177 197.206 Q117.566 197.206 115.737 200.771 Q113.932 204.312 113.932 211.442 Q113.932 218.548 115.737 222.113 Q117.566 225.655 121.177 225.655 Q124.811 225.655 126.617 222.113 Q128.445 218.548 128.445 211.442 Q128.445 204.312 126.617 200.771 Q124.811 197.206 121.177 197.206 M121.177 193.502 Q126.987 193.502 130.043 198.109 Q133.121 202.692 133.121 211.442 Q133.121 220.169 130.043 224.775 Q126.987 229.358 121.177 229.358 Q115.367 229.358 112.288 224.775 Q109.233 220.169 109.233 211.442 Q109.233 202.692 112.288 198.109 Q115.367 193.502 121.177 193.502 Z" fill="#000000" fill-rule="evenodd" fill-opacity="1" /><polyline clip-path="url(#clip452)" style="stroke:#ff0000; stroke-linecap:round; stroke-linejoin:round; stroke-width:4; stroke-opacity:1; fill:none" points="
  230.922,1445.72 239.506,1399.43 248.089,1353.14 256.673,1306.86 265.256,1260.57 273.84,1214.28 282.423,1168 291.007,1121.71 299.59,1075.42 308.174,1029.14 
  316.757,982.85 325.34,936.563 333.924,890.277 342.507,843.99 351.091,797.704 359.674,751.417 368.258,705.131 376.841,658.844 385.425,612.557 394.008,566.271 
  402.592,519.984 411.175,473.698 419.759,427.411 428.342,381.125 436.926,334.838 445.509,288.551 454.092,242.265 462.676,195.978 471.259,154.54 479.843,172.737 
  488.426,190.678 497.01,208.366 505.593,225.805 514.177,242.997 522.76,259.948 531.344,276.66 539.927,293.136 548.511,309.38 557.094,325.395 565.678,341.184 
  574.261,356.751 582.845,372.098 591.428,387.229 600.011,402.147 608.595,416.854 617.178,431.355 625.762,445.651 634.345,459.745 642.929,473.641 651.512,487.341 
  660.096,500.848 668.679,514.164 677.263,527.293 685.846,540.237 694.43,552.998 703.013,565.58 711.597,577.984 720.18,590.213 728.764,602.271 737.347,614.158 
  745.93,625.877 754.514,637.432 763.097,648.823 771.681,660.054 780.264,671.127 788.848,682.044 797.431,692.807 806.015,703.418 814.598,713.879 823.182,724.193 
  831.765,734.362 840.349,744.388 848.932,754.272 857.516,764.017 866.099,773.624 874.682,783.096 883.266,792.435 891.849,801.642 900.433,810.719 909.016,819.669 
  917.6,828.492 926.183,837.191 934.767,845.767 943.35,854.222 951.934,862.559 960.517,870.777 969.101,878.88 977.684,886.869 986.268,894.745 994.851,902.51 
  1003.43,910.166 1012.02,917.714 1020.6,925.155 1029.18,932.492 1037.77,939.725 1046.35,946.856 1054.94,953.887 1063.52,960.818 1072.1,967.652 1080.69,974.39 
  1089.27,981.032 1097.85,987.582 1106.44,994.038 1115.02,1000.4 1123.6,1006.68 1132.19,1012.87 1140.77,1018.97 1149.35,1024.98 1157.94,1030.91 1166.52,1036.76 
  1175.1,1042.52 1183.69,1048.2 1192.27,1053.81 1200.85,1059.33 1209.44,1064.78 1218.02,1070.14 1226.6,1075.44 1235.19,1080.66 1243.77,1085.8 1252.36,1090.87 
  1260.94,1095.87 1269.52,1100.8 1278.11,1105.67 1286.69,1110.46 1295.27,1115.18 1303.86,1119.84 1312.44,1124.43 1321.02,1128.96 1329.61,1133.43 1338.19,1137.83 
  1346.77,1142.17 1355.36,1146.44 1363.94,1150.66 1372.52,1154.82 1381.11,1158.92 1389.69,1162.96 1398.27,1166.95 1406.86,1170.88 1415.44,1174.75 1424.02,1178.57 
  1432.61,1182.33 1441.19,1186.05 1449.77,1189.71 1458.36,1193.31 1466.94,1196.87 1475.53,1200.38 1484.11,1203.84 1492.69,1207.24 1501.28,1210.61 1509.86,1213.92 
  1518.44,1217.19 1527.03,1220.41 1535.61,1223.58 1544.19,1226.71 1552.78,1229.8 1561.36,1232.84 1569.94,1235.84 1578.53,1238.8 1587.11,1241.72 1595.69,1244.59 
  1604.28,1247.43 1612.86,1250.22 1621.44,1252.98 1630.03,1255.69 1638.61,1258.37 1647.19,1261.01 1655.78,1263.61 1664.36,1266.18 1672.95,1268.71 1681.53,1271.21 
  1690.11,1273.66 1698.7,1276.09 1707.28,1278.48 1715.86,1280.84 1724.45,1283.16 1733.03,1285.45 1741.61,1287.71 1750.2,1289.94 1758.78,1292.13 1767.36,1294.3 
  1775.95,1296.43 1784.53,1298.54 1793.11,1300.61 1801.7,1302.65 1810.28,1304.67 1818.86,1306.66 1827.45,1308.62 1836.03,1310.55 1844.61,1312.46 1853.2,1314.33 
  1861.78,1316.19 1870.36,1318.01 1878.95,1319.81 1887.53,1321.59 1896.12,1323.33 1904.7,1325.06 1913.28,1326.76 1921.87,1328.44 1930.45,1330.09 1939.03,1331.72 
  1947.62,1333.33 1956.2,1334.91 1964.78,1336.47 1973.37,1338.01 1981.95,1339.53 1990.53,1341.03 1999.12,1342.5 2007.7,1343.96 2016.28,1345.39 2024.87,1346.8 
  2033.45,1348.2 2042.03,1349.57 2050.62,1350.93 2059.2,1352.26 2067.78,1353.58 2076.37,1354.88 2084.95,1356.16 2093.54,1357.42 2102.12,1358.67 2110.7,1359.89 
  2119.29,1361.1 2127.87,1362.29 2136.45,1363.47 2145.04,1364.63 2153.62,1365.77 2162.2,1366.9 2170.79,1368.01 2179.37,1369.1 2187.95,1370.18 2196.54,1371.25 
  2205.12,1372.3 2213.7,1373.33 2222.29,1374.35 2230.87,1375.36 2239.45,1376.35 2248.04,1377.33 2256.62,1378.29 2265.2,1379.24 2273.79,1380.18 2282.37,1381.1 
  2290.95,1382.01 
  "/>
<circle clip-path="url(#clip452)" cx="230.922" cy="1445.72" r="14.4" fill="#ff0000" fill-rule="evenodd" fill-opacity="1" stroke="#000000" stroke-opacity="1" stroke-width="3.2"/>
<circle clip-path="url(#clip452)" cx="316.757" cy="1188.57" r="14.4" fill="#ff0000" fill-rule="evenodd" fill-opacity="1" stroke="#000000" stroke-opacity="1" stroke-width="3.2"/>
<circle clip-path="url(#clip452)" cx="402.592" cy="417.125" r="14.4" fill="#ff0000" fill-rule="evenodd" fill-opacity="1" stroke="#000000" stroke-opacity="1" stroke-width="3.2"/>
<circle clip-path="url(#clip452)" cx="488.426" cy="87.9763" r="14.4" fill="#ff0000" fill-rule="evenodd" fill-opacity="1" stroke="#000000" stroke-opacity="1" stroke-width="3.2"/>
<circle clip-path="url(#clip452)" cx="574.261" cy="519.984" r="14.4" fill="#ff0000" fill-rule="evenodd" fill-opacity="1" stroke="#000000" stroke-opacity="1" stroke-width="3.2"/>
<circle clip-path="url(#clip452)" cx="745.93" cy="602.272" r="14.4" fill="#ff0000" fill-rule="evenodd" fill-opacity="1" stroke="#000000" stroke-opacity="1" stroke-width="3.2"/>
<circle clip-path="url(#clip452)" cx="917.6" cy="828.561" r="14.4" fill="#ff0000" fill-rule="evenodd" fill-opacity="1" stroke="#000000" stroke-opacity="1" stroke-width="3.2"/>
<circle clip-path="url(#clip452)" cx="1089.27" cy="879.991" r="14.4" fill="#ff0000" fill-rule="evenodd" fill-opacity="1" stroke="#000000" stroke-opacity="1" stroke-width="3.2"/>
<circle clip-path="url(#clip452)" cx="1260.94" cy="1116.57" r="14.4" fill="#ff0000" fill-rule="evenodd" fill-opacity="1" stroke="#000000" stroke-opacity="1" stroke-width="3.2"/>
<circle clip-path="url(#clip452)" cx="1604.28" cy="1291.43" r="14.4" fill="#ff0000" fill-rule="evenodd" fill-opacity="1" stroke="#000000" stroke-opacity="1" stroke-width="3.2"/>
<circle clip-path="url(#clip452)" cx="2290.95" cy="1404.57" r="14.4" fill="#ff0000" fill-rule="evenodd" fill-opacity="1" stroke="#000000" stroke-opacity="1" stroke-width="3.2"/>
<path clip-path="url(#clip450)" d="
M1679.15 250.738 L2279.97 250.738 L2279.97 95.2176 L1679.15 95.2176  Z
  " fill="#ffffff" fill-rule="evenodd" fill-opacity="1"/>
<polyline clip-path="url(#clip450)" style="stroke:#000000; stroke-linecap:round; stroke-linejoin:round; stroke-width:4; stroke-opacity:1; fill:none" points="
  1679.15,250.738 2279.97,250.738 2279.97,95.2176 1679.15,95.2176 1679.15,250.738 
  "/>
<polyline clip-path="url(#clip450)" style="stroke:#ff0000; stroke-linecap:round; stroke-linejoin:round; stroke-width:4; stroke-opacity:1; fill:none" points="
  1703.41,147.058 1848.99,147.058 
  "/>
<path clip-path="url(#clip450)" d="M1889.08 134.384 L1882.74 151.583 L1895.45 151.583 L1889.08 134.384 M1886.44 129.778 L1891.75 129.778 L1904.92 164.338 L1900.06 164.338 L1896.91 155.472 L1881.33 155.472 L1878.18 164.338 L1873.25 164.338 L1886.44 129.778 Z" fill="#000000" fill-rule="evenodd" fill-opacity="1" /><path clip-path="url(#clip450)" d="M1914.41 160.402 L1930.73 160.402 L1930.73 164.338 L1908.78 164.338 L1908.78 160.402 Q1911.44 157.648 1916.03 153.018 Q1920.63 148.365 1921.81 147.023 Q1924.06 144.5 1924.94 142.764 Q1925.84 141.004 1925.84 139.315 Q1925.84 136.56 1923.9 134.824 Q1921.98 133.088 1918.88 133.088 Q1916.68 133.088 1914.22 133.852 Q1911.79 134.615 1909.01 136.166 L1909.01 131.444 Q1911.84 130.31 1914.29 129.731 Q1916.75 129.153 1918.78 129.153 Q1924.15 129.153 1927.35 131.838 Q1930.54 134.523 1930.54 139.014 Q1930.54 141.143 1929.73 143.065 Q1928.94 144.963 1926.84 147.555 Q1926.26 148.227 1923.16 151.444 Q1920.06 154.639 1914.41 160.402 Z" fill="#000000" fill-rule="evenodd" fill-opacity="1" /><path clip-path="url(#clip450)" d="M1950.54 132.856 Q1946.93 132.856 1945.1 136.421 Q1943.3 139.963 1943.3 147.092 Q1943.3 154.199 1945.1 157.764 Q1946.93 161.305 1950.54 161.305 Q1954.18 161.305 1955.98 157.764 Q1957.81 154.199 1957.81 147.092 Q1957.81 139.963 1955.98 136.421 Q1954.18 132.856 1950.54 132.856 M1950.54 129.153 Q1956.35 129.153 1959.41 133.759 Q1962.49 138.342 1962.49 147.092 Q1962.49 155.819 1959.41 160.426 Q1956.35 165.009 1950.54 165.009 Q1944.73 165.009 1941.65 160.426 Q1938.6 155.819 1938.6 147.092 Q1938.6 138.342 1941.65 133.759 Q1944.73 129.153 1950.54 129.153 Z" fill="#000000" fill-rule="evenodd" fill-opacity="1" /><path clip-path="url(#clip450)" d="M1980.7 132.856 Q1977.09 132.856 1975.26 136.421 Q1973.46 139.963 1973.46 147.092 Q1973.46 154.199 1975.26 157.764 Q1977.09 161.305 1980.7 161.305 Q1984.34 161.305 1986.14 157.764 Q1987.97 154.199 1987.97 147.092 Q1987.97 139.963 1986.14 136.421 Q1984.34 132.856 1980.7 132.856 M1980.7 129.153 Q1986.51 129.153 1989.57 133.759 Q1992.65 138.342 1992.65 147.092 Q1992.65 155.819 1989.57 160.426 Q1986.51 165.009 1980.7 165.009 Q1974.89 165.009 1971.81 160.426 Q1968.76 155.819 1968.76 147.092 Q1968.76 138.342 1971.81 133.759 Q1974.89 129.153 1980.7 129.153 Z" fill="#000000" fill-rule="evenodd" fill-opacity="1" /><path clip-path="url(#clip450)" d="M2019.45 160.449 L2019.45 174.199 L2015.17 174.199 L2015.17 138.412 L2019.45 138.412 L2019.45 142.347 Q2020.8 140.032 2022.83 138.921 Q2024.89 137.787 2027.74 137.787 Q2032.46 137.787 2035.4 141.537 Q2038.37 145.287 2038.37 151.398 Q2038.37 157.509 2035.4 161.259 Q2032.46 165.009 2027.74 165.009 Q2024.89 165.009 2022.83 163.898 Q2020.8 162.763 2019.45 160.449 M2033.94 151.398 Q2033.94 146.699 2032 144.037 Q2030.08 141.352 2026.7 141.352 Q2023.32 141.352 2021.37 144.037 Q2019.45 146.699 2019.45 151.398 Q2019.45 156.097 2021.37 158.782 Q2023.32 161.444 2026.7 161.444 Q2030.08 161.444 2032 158.782 Q2033.94 156.097 2033.94 151.398 Z" fill="#000000" fill-rule="evenodd" fill-opacity="1" /><path clip-path="url(#clip450)" d="M2060.45 142.393 Q2059.73 141.977 2058.87 141.791 Q2058.04 141.583 2057.02 141.583 Q2053.41 141.583 2051.47 143.944 Q2049.55 146.282 2049.55 150.68 L2049.55 164.338 L2045.26 164.338 L2045.26 138.412 L2049.55 138.412 L2049.55 142.44 Q2050.89 140.078 2053.04 138.944 Q2055.19 137.787 2058.27 137.787 Q2058.71 137.787 2059.24 137.856 Q2059.78 137.903 2060.43 138.018 L2060.45 142.393 Z" fill="#000000" fill-rule="evenodd" fill-opacity="1" /><path clip-path="url(#clip450)" d="M2086.05 150.31 L2086.05 152.393 L2066.47 152.393 Q2066.74 156.791 2069.11 159.106 Q2071.49 161.398 2075.73 161.398 Q2078.18 161.398 2080.47 160.796 Q2082.79 160.194 2085.05 158.99 L2085.05 163.018 Q2082.76 163.99 2080.36 164.5 Q2077.95 165.009 2075.47 165.009 Q2069.27 165.009 2065.63 161.398 Q2062.02 157.787 2062.02 151.629 Q2062.02 145.264 2065.45 141.537 Q2068.9 137.787 2074.73 137.787 Q2079.96 137.787 2082.99 141.166 Q2086.05 144.523 2086.05 150.31 M2081.79 149.06 Q2081.74 145.565 2079.82 143.481 Q2077.93 141.398 2074.78 141.398 Q2071.21 141.398 2069.06 143.412 Q2066.93 145.426 2066.61 149.083 L2081.79 149.06 Z" fill="#000000" fill-rule="evenodd" fill-opacity="1" /><path clip-path="url(#clip450)" d="M2110.1 142.347 L2110.1 128.319 L2114.36 128.319 L2114.36 164.338 L2110.1 164.338 L2110.1 160.449 Q2108.76 162.763 2106.7 163.898 Q2104.66 165.009 2101.79 165.009 Q2097.09 165.009 2094.13 161.259 Q2091.19 157.509 2091.19 151.398 Q2091.19 145.287 2094.13 141.537 Q2097.09 137.787 2101.79 137.787 Q2104.66 137.787 2106.7 138.921 Q2108.76 140.032 2110.1 142.347 M2095.59 151.398 Q2095.59 156.097 2097.51 158.782 Q2099.45 161.444 2102.83 161.444 Q2106.21 161.444 2108.16 158.782 Q2110.1 156.097 2110.1 151.398 Q2110.1 146.699 2108.16 144.037 Q2106.21 141.352 2102.83 141.352 Q2099.45 141.352 2097.51 144.037 Q2095.59 146.699 2095.59 151.398 Z" fill="#000000" fill-rule="evenodd" fill-opacity="1" /><path clip-path="url(#clip450)" d="M2123.13 138.412 L2127.39 138.412 L2127.39 164.338 L2123.13 164.338 L2123.13 138.412 M2123.13 128.319 L2127.39 128.319 L2127.39 133.713 L2123.13 133.713 L2123.13 128.319 Z" fill="#000000" fill-rule="evenodd" fill-opacity="1" /><path clip-path="url(#clip450)" d="M2154.96 139.407 L2154.96 143.389 Q2153.16 142.393 2151.33 141.907 Q2149.52 141.398 2147.67 141.398 Q2143.53 141.398 2141.24 144.037 Q2138.94 146.652 2138.94 151.398 Q2138.94 156.143 2141.24 158.782 Q2143.53 161.398 2147.67 161.398 Q2149.52 161.398 2151.33 160.912 Q2153.16 160.402 2154.96 159.407 L2154.96 163.342 Q2153.18 164.176 2151.26 164.592 Q2149.36 165.009 2147.21 165.009 Q2141.35 165.009 2137.9 161.328 Q2134.45 157.648 2134.45 151.398 Q2134.45 145.055 2137.92 141.421 Q2141.42 137.787 2147.48 137.787 Q2149.45 137.787 2151.33 138.203 Q2153.2 138.597 2154.96 139.407 Z" fill="#000000" fill-rule="evenodd" fill-opacity="1" /><path clip-path="url(#clip450)" d="M2166.58 131.051 L2166.58 138.412 L2175.36 138.412 L2175.36 141.722 L2166.58 141.722 L2166.58 155.796 Q2166.58 158.967 2167.44 159.87 Q2168.32 160.773 2170.98 160.773 L2175.36 160.773 L2175.36 164.338 L2170.98 164.338 Q2166.05 164.338 2164.17 162.509 Q2162.3 160.657 2162.3 155.796 L2162.3 141.722 L2159.17 141.722 L2159.17 138.412 L2162.3 138.412 L2162.3 131.051 L2166.58 131.051 Z" fill="#000000" fill-rule="evenodd" fill-opacity="1" /><path clip-path="url(#clip450)" d="M2203.13 150.31 L2203.13 152.393 L2183.55 152.393 Q2183.83 156.791 2186.19 159.106 Q2188.57 161.398 2192.81 161.398 Q2195.26 161.398 2197.55 160.796 Q2199.87 160.194 2202.14 158.99 L2202.14 163.018 Q2199.85 163.99 2197.44 164.5 Q2195.03 165.009 2192.55 165.009 Q2186.35 165.009 2182.72 161.398 Q2179.11 157.787 2179.11 151.629 Q2179.11 145.264 2182.53 141.537 Q2185.98 137.787 2191.81 137.787 Q2197.04 137.787 2200.08 141.166 Q2203.13 144.523 2203.13 150.31 M2198.87 149.06 Q2198.83 145.565 2196.91 143.481 Q2195.01 141.398 2191.86 141.398 Q2188.29 141.398 2186.14 143.412 Q2184.01 145.426 2183.69 149.083 L2198.87 149.06 Z" fill="#000000" fill-rule="evenodd" fill-opacity="1" /><path clip-path="url(#clip450)" d="M2227.18 142.347 L2227.18 128.319 L2231.44 128.319 L2231.44 164.338 L2227.18 164.338 L2227.18 160.449 Q2225.84 162.763 2223.78 163.898 Q2221.74 165.009 2218.87 165.009 Q2214.17 165.009 2211.21 161.259 Q2208.27 157.509 2208.27 151.398 Q2208.27 145.287 2211.21 141.537 Q2214.17 137.787 2218.87 137.787 Q2221.74 137.787 2223.78 138.921 Q2225.84 140.032 2227.18 142.347 M2212.67 151.398 Q2212.67 156.097 2214.59 158.782 Q2216.54 161.444 2219.92 161.444 Q2223.29 161.444 2225.24 158.782 Q2227.18 156.097 2227.18 151.398 Q2227.18 146.699 2225.24 144.037 Q2223.29 141.352 2219.92 141.352 Q2216.54 141.352 2214.59 144.037 Q2212.67 146.699 2212.67 151.398 Z" fill="#000000" fill-rule="evenodd" fill-opacity="1" /><circle clip-path="url(#clip450)" cx="1776.2" cy="198.898" r="23.04" fill="#ff0000" fill-rule="evenodd" fill-opacity="1" stroke="#000000" stroke-opacity="1" stroke-width="5.12"/>
<path clip-path="url(#clip450)" d="M1889.08 186.224 L1882.74 203.423 L1895.45 203.423 L1889.08 186.224 M1886.44 181.618 L1891.75 181.618 L1904.92 216.178 L1900.06 216.178 L1896.91 207.312 L1881.33 207.312 L1878.18 216.178 L1873.25 216.178 L1886.44 181.618 Z" fill="#000000" fill-rule="evenodd" fill-opacity="1" /><path clip-path="url(#clip450)" d="M1914.41 212.242 L1930.73 212.242 L1930.73 216.178 L1908.78 216.178 L1908.78 212.242 Q1911.44 209.488 1916.03 204.858 Q1920.63 200.205 1921.81 198.863 Q1924.06 196.34 1924.94 194.604 Q1925.84 192.844 1925.84 191.155 Q1925.84 188.4 1923.9 186.664 Q1921.98 184.928 1918.88 184.928 Q1916.68 184.928 1914.22 185.692 Q1911.79 186.455 1909.01 188.006 L1909.01 183.284 Q1911.84 182.15 1914.29 181.571 Q1916.75 180.993 1918.78 180.993 Q1924.15 180.993 1927.35 183.678 Q1930.54 186.363 1930.54 190.854 Q1930.54 192.983 1929.73 194.905 Q1928.94 196.803 1926.84 199.395 Q1926.26 200.067 1923.16 203.284 Q1920.06 206.479 1914.41 212.242 Z" fill="#000000" fill-rule="evenodd" fill-opacity="1" /><path clip-path="url(#clip450)" d="M1950.54 184.696 Q1946.93 184.696 1945.1 188.261 Q1943.3 191.803 1943.3 198.932 Q1943.3 206.039 1945.1 209.604 Q1946.93 213.145 1950.54 213.145 Q1954.18 213.145 1955.98 209.604 Q1957.81 206.039 1957.81 198.932 Q1957.81 191.803 1955.98 188.261 Q1954.18 184.696 1950.54 184.696 M1950.54 180.993 Q1956.35 180.993 1959.41 185.599 Q1962.49 190.182 1962.49 198.932 Q1962.49 207.659 1959.41 212.266 Q1956.35 216.849 1950.54 216.849 Q1944.73 216.849 1941.65 212.266 Q1938.6 207.659 1938.6 198.932 Q1938.6 190.182 1941.65 185.599 Q1944.73 180.993 1950.54 180.993 Z" fill="#000000" fill-rule="evenodd" fill-opacity="1" /><path clip-path="url(#clip450)" d="M1980.7 184.696 Q1977.09 184.696 1975.26 188.261 Q1973.46 191.803 1973.46 198.932 Q1973.46 206.039 1975.26 209.604 Q1977.09 213.145 1980.7 213.145 Q1984.34 213.145 1986.14 209.604 Q1987.97 206.039 1987.97 198.932 Q1987.97 191.803 1986.14 188.261 Q1984.34 184.696 1980.7 184.696 M1980.7 180.993 Q1986.51 180.993 1989.57 185.599 Q1992.65 190.182 1992.65 198.932 Q1992.65 207.659 1989.57 212.266 Q1986.51 216.849 1980.7 216.849 Q1974.89 216.849 1971.81 212.266 Q1968.76 207.659 1968.76 198.932 Q1968.76 190.182 1971.81 185.599 Q1974.89 180.993 1980.7 180.993 Z" fill="#000000" fill-rule="evenodd" fill-opacity="1" /><path clip-path="url(#clip450)" d="M2027.12 203.145 Q2021.95 203.145 2019.96 204.326 Q2017.97 205.506 2017.97 208.354 Q2017.97 210.622 2019.45 211.965 Q2020.96 213.284 2023.53 213.284 Q2027.07 213.284 2029.2 210.784 Q2031.35 208.261 2031.35 204.094 L2031.35 203.145 L2027.12 203.145 M2035.61 201.386 L2035.61 216.178 L2031.35 216.178 L2031.35 212.242 Q2029.89 214.603 2027.72 215.738 Q2025.54 216.849 2022.39 216.849 Q2018.41 216.849 2016.05 214.627 Q2013.71 212.381 2013.71 208.631 Q2013.71 204.256 2016.63 202.034 Q2019.57 199.812 2025.38 199.812 L2031.35 199.812 L2031.35 199.395 Q2031.35 196.455 2029.41 194.858 Q2027.49 193.238 2023.99 193.238 Q2021.77 193.238 2019.66 193.77 Q2017.56 194.303 2015.61 195.367 L2015.61 191.432 Q2017.95 190.53 2020.15 190.09 Q2022.35 189.627 2024.43 189.627 Q2030.06 189.627 2032.83 192.543 Q2035.61 195.46 2035.61 201.386 Z" fill="#000000" fill-rule="evenodd" fill-opacity="1" /><path clip-path="url(#clip450)" d="M2063.04 191.247 L2063.04 195.229 Q2061.24 194.233 2059.41 193.747 Q2057.6 193.238 2055.75 193.238 Q2051.61 193.238 2049.31 195.877 Q2047.02 198.492 2047.02 203.238 Q2047.02 207.983 2049.31 210.622 Q2051.61 213.238 2055.75 213.238 Q2057.6 213.238 2059.41 212.752 Q2061.24 212.242 2063.04 211.247 L2063.04 215.182 Q2061.26 216.016 2059.34 216.432 Q2057.44 216.849 2055.29 216.849 Q2049.43 216.849 2045.98 213.168 Q2042.53 209.488 2042.53 203.238 Q2042.53 196.895 2046 193.261 Q2049.5 189.627 2055.56 189.627 Q2057.53 189.627 2059.41 190.043 Q2061.28 190.437 2063.04 191.247 Z" fill="#000000" fill-rule="evenodd" fill-opacity="1" /><path clip-path="url(#clip450)" d="M2074.66 182.891 L2074.66 190.252 L2083.43 190.252 L2083.43 193.562 L2074.66 193.562 L2074.66 207.636 Q2074.66 210.807 2075.52 211.71 Q2076.4 212.613 2079.06 212.613 L2083.43 212.613 L2083.43 216.178 L2079.06 216.178 Q2074.13 216.178 2072.25 214.349 Q2070.38 212.497 2070.38 207.636 L2070.38 193.562 L2067.25 193.562 L2067.25 190.252 L2070.38 190.252 L2070.38 182.891 L2074.66 182.891 Z" fill="#000000" fill-rule="evenodd" fill-opacity="1" /><path clip-path="url(#clip450)" d="M2088.6 205.946 L2088.6 190.252 L2092.86 190.252 L2092.86 205.784 Q2092.86 209.465 2094.29 211.316 Q2095.73 213.145 2098.6 213.145 Q2102.05 213.145 2104.04 210.946 Q2106.05 208.747 2106.05 204.951 L2106.05 190.252 L2110.31 190.252 L2110.31 216.178 L2106.05 216.178 L2106.05 212.196 Q2104.5 214.557 2102.44 215.715 Q2100.4 216.849 2097.69 216.849 Q2093.23 216.849 2090.91 214.071 Q2088.6 211.293 2088.6 205.946 M2099.31 189.627 L2099.31 189.627 Z" fill="#000000" fill-rule="evenodd" fill-opacity="1" /><path clip-path="url(#clip450)" d="M2130.86 203.145 Q2125.7 203.145 2123.71 204.326 Q2121.72 205.506 2121.72 208.354 Q2121.72 210.622 2123.2 211.965 Q2124.71 213.284 2127.28 213.284 Q2130.82 213.284 2132.95 210.784 Q2135.1 208.261 2135.1 204.094 L2135.1 203.145 L2130.86 203.145 M2139.36 201.386 L2139.36 216.178 L2135.1 216.178 L2135.1 212.242 Q2133.64 214.603 2131.47 215.738 Q2129.29 216.849 2126.14 216.849 Q2122.16 216.849 2119.8 214.627 Q2117.46 212.381 2117.46 208.631 Q2117.46 204.256 2120.38 202.034 Q2123.32 199.812 2129.13 199.812 L2135.1 199.812 L2135.1 199.395 Q2135.1 196.455 2133.16 194.858 Q2131.24 193.238 2127.74 193.238 Q2125.52 193.238 2123.41 193.77 Q2121.3 194.303 2119.36 195.367 L2119.36 191.432 Q2121.7 190.53 2123.9 190.09 Q2126.1 189.627 2128.18 189.627 Q2133.8 189.627 2136.58 192.543 Q2139.36 195.46 2139.36 201.386 Z" fill="#000000" fill-rule="evenodd" fill-opacity="1" /><path clip-path="url(#clip450)" d="M2148.13 180.159 L2152.39 180.159 L2152.39 216.178 L2148.13 216.178 L2148.13 180.159 Z" fill="#000000" fill-rule="evenodd" fill-opacity="1" /></svg>
